{"title":"The Passion of the Christ [2004] BRRip XviD - CODY","uid":7286938,"size":947162348,"categoryP":"video","categoryS":"movies","magnet":"?xt=urn:btih:4e8fca5ed5458fbe0051338623d05313a14954b2&amp;dn=The+Passion+of+the+Christ+%5B2004%5D+BRRip+XviD+-+CODY&amp;tr=udp%3A%2F%2Ftracker.openbittorrent.com%3A80&amp;tr=udp%3A%2F%2Fopen.demonii.com%3A1337&amp;tr=udp%3A%2F%2Ftracker.coppersurfer.tk%3A6969&amp;tr=udp%3A%2F%2Fexodus.desync.com%3A6969","seeders":1,"leechers":0,"uploader":"CODYBOSS1969","files":23,"time":1337614492,"description":"General\nComplete name                            : The Passion of the Christ [2004] BRRip XviD - CODY.avi\nFormat                                   : AVI\nFormat/Info                              : Audio Video Interleave\nFile size                                : 902 MiB\nDuration                                 : 2h 6mn\nOverall bit rate                         : 997 Kbps\nWriting application                      : VirtualDubMod 1.5.10.3 | www.virtualdub-fr.org || (build 2550/release)\n\nVideo\nID                                       : 0\nFormat                                   : MPEG-4 Visual\nFormat profile                           : Advanced Simple@L5\nFormat settings, BVOP                    : 4\nFormat settings, QPel                    : No\nFormat settings, GMC                     : No warppoints\nFormat settings, Matrix                  : Default (H.263)\nCodec ID                                 : XVID\nCodec ID/Hint                            : XviD\nDuration                                 : 2h 6mn\nBit rate                                 : 860 Kbps\nWidth                                    : 720 pixels\nHeight                                   : 296 pixels\nDisplay aspect ratio                     : 2.40:1\nFrame rate                               : 23.976 fps\nColor space                              : YUV\nChroma subsampling                       : 4:2:0\nBit depth                                : 8 bits\nScan type                                : Progressive\nCompression mode                         : Lossy\nBits/(Pixel*Frame)                       : 0.168\nStream size                              : 778 MiB (86%)\nWriting library                          : XviD 1.2.1 (UTC 2008-12-04)\n\nAudio\nID                                       : 1\nFormat                                   : MPEG Audio\nFormat version                           : Version 1\nFormat profile                           : Layer 3\nCodec ID                                 : 55\nCodec ID/Hint                            : MP3\nDuration                                 : 2h 6mn\nBit rate mode                            : Constant\nBit rate                                 : 128 Kbps\nChannel(s)                               : 2 channels\nSampling rate                            : 48.0 KHz\nCompression mode                         : Lossy\nStream size                              : 116 MiB (13%)\nAlignment                                : Aligned on interleaves\nInterleave, duration                     : 42 ms (1.00 video frame)\nInterleave, preload duration             : 504 ms\nWriting library                          : L3.99r\nEncoding settings                        : -m s -V 4 -q 2 -lowpass 17 -b 128\n\n\nIMDB link:                                 &lt;a href=&quot; http://www.imdb.com/title/tt0335345/&quot; rel=&quot;nofollow&quot; target=&quot;_NEW&quot;&gt; http://www.imdb.com/title/tt0335345/&lt;/a&gt;\n\n\nSpoken languages                         : Aramaic, Latin, Hebrew\n\n\nSubtitles included: Arabic, Chinese, Croatian, Danish, Dutch, English, Farsi, French, Greek, Hungarian, Italian, Portuguese, Portuguese-Brazilian, Romanian, Serbian, Slovenian, Spanish, Turkish, Vietnamese\n\n\nPlease seed at least 1,5:1 . This way this torrent has a chance to survive !\n\n\nThanks. Enjoy !!","torrent":{"xt":"urn:btih:4e8fca5ed5458fbe0051338623d05313a14954b2","amp;dn":"The+Passion+of+the+Christ+%5B2004%5D+BRRip+XviD+-+CODY","amp;tr":["udp%3A%2F%2Ftracker.openbittorrent.com%3A80","udp%3A%2F%2Fopen.demonii.com%3A1337","udp%3A%2F%2Ftracker.coppersurfer.tk%3A6969","udp%3A%2F%2Fexodus.desync.com%3A6969"],"infoHash":"4e8fca5ed5458fbe0051338623d05313a14954b2","infoHashBuffer":{"type":"Buffer","data":[78,143,202,94,213,69,143,190,0,81,51,134,35,208,83,19,161,73,84,178]},"announce":[],"urlList":[]}}